<?xml version="1.0" encoding="utf-8"?>
<!-- Generator: Adobe Illustrator 24.0.3, SVG Export Plug-In . SVG Version: 6.00 Build 0)  -->
<svg version="1.1" id="Camada_1" xmlns="http://www.w3.org/2000/svg" xmlns:xlink="http://www.w3.org/1999/xlink" x="0px" y="0px"
	 viewBox="0 0 1161.2 226.1" style="enable-background:new 0 0 1161.2 226.1;" xml:space="preserve">
<style type="text/css">
	.st0{fill:#006A8E;}
	.st1{fill:#F57EB6;}
	.st2{fill:#BA0C2F;}
	.st3{fill:none;}
</style>
<title>logo-paraíso-feminino-versao-3</title>
<g>
	<g id="Camada_2_1_">
		<g id="Camada_1-2">
			<path class="st0" d="M276,92.1h19.8c7.3,0,13,1.8,17.1,5.5s6.1,9.1,6.1,16.4c0,5.2-1.1,9.5-3.4,12.8c-2.1,3.3-5.1,5.8-8.6,7.4
				c-3.4,1.5-7.2,2.3-10.9,2.3h-6.4v20.2H276V92.1z M294.5,130.2c3.3,0,5.8-1.2,7.4-3.4c1.6-2.2,2.4-6.3,2.4-12.2
				c0-5.9-0.8-10-2.4-12.4c-1.6-2.4-4-3.6-7.4-3.6h-4.8v31.6H294.5z"/>
			<path class="st0" d="M319.2,156.7l21.5-64.6h15.2l20.1,64.6h-14.5l-5.6-18.1h-22.5l-5.9,18.1H319.2z M335.4,132.3H354l-8.9-30.4
				h-0.2L335.4,132.3z"/>
			<path class="st0" d="M385.5,92.1h19.9c7.3,0,13,1.8,17.1,5.3s6.2,8.5,6.2,15c0.1,3.9-1,7.7-3.1,10.9c-2,3.1-4.8,5.5-8,7.2
				l14.9,26.2h-15.8l-12.1-23.5h-5.3v23.5h-13.7V92.1H385.5z M404.2,126.7c2,0.1,4-0.3,5.7-1.2c1.5-1,2.5-2.5,2.9-4.2
				c0.7-2.7,1-5.5,0.9-8.2c0-5.2-0.7-8.9-2.2-11.1c-1.5-2.2-4-3.3-7.6-3.3h-4.8v28.1L404.2,126.7z"/>
			<path class="st0" d="M437.2,156.7l21.5-64.6h15.2l20.1,64.6h-14.5l-5.7-18.1h-22.5l-5.9,18.1H437.2z M453.4,132.3H472l-8.9-30.4
				h-0.2L453.4,132.3z"/>
			<path class="st0" d="M503.4,156.7V92.1h13.7v64.6H503.4z M511.3,86.7l-5.7-0.9l7-15.1l10.7,3.1L511.3,86.7z"/>
			<path class="st0" d="M536.6,156.1c-2.4-0.8-4.6-2.1-6.5-3.7c-1.4-1.3-2.1-2.1-2.1-2.4l3.8-5.8c0.6,0.7,1.3,1.3,2,1.8
				c3.7,2.9,8.3,4.5,13,4.4c3.1,0,5.5-0.8,7.3-2.5c1.7-1.7,2.7-4.1,2.6-6.6c0-1.6-0.5-3.2-1.4-4.5c-1-1.3-2.1-2.4-3.5-3.3
				c-1.4-0.9-3.3-2-5.7-3.4c-2.7-1.4-5.4-3-7.9-4.8c-2.1-1.6-3.9-3.7-5.3-6c-1.5-2.7-2.3-5.9-2.2-9c-0.1-3.6,0.9-7.1,2.7-10.2
				c1.8-2.9,4.4-5.2,7.5-6.7c3.4-1.6,7.1-2.4,10.8-2.3c2.5,0,5.1,0.3,7.5,1c2.1,0.5,4.1,1.3,6,2.2c0.9,0.4,1.7,0.8,2.4,1.4l-1.6,6.8
				c-0.3-0.2-1.1-0.7-2.4-1.3c-1.6-0.8-3.2-1.5-4.9-2c-2-0.7-4-1-6.1-1c-2.2-0.1-4.4,0.7-6.1,2.1c-1.6,1.6-2.4,3.7-2.3,5.9
				c-0.1,2.5,0.9,4.9,2.7,6.7c2.5,2.1,5.3,4,8.2,5.5c2.8,1.4,5.4,3.1,8,4.9c2.1,1.6,3.8,3.6,5.1,5.9c1.5,2.9,2.3,6.1,2.1,9.3
				c0.1,3.7-0.9,7.4-3,10.4c-2.1,3-4.9,5.3-8.2,6.7c-3.6,1.6-7.6,2.4-11.5,2.3C543.9,158,540.1,157.4,536.6,156.1z"/>
			<path class="st0" d="M584.9,148.9c-5.1-5.9-7.6-14.1-7.6-24.4s2.5-18.5,7.6-24.5s12.3-8.9,21.6-9s16.6,3,21.8,9
				c5.1,6,7.7,14.1,7.7,24.4s-2.6,18.4-7.7,24.4c-5.1,6-12.4,9-21.8,9S590,154.9,584.9,148.9z M617.6,144.5c2.2-4.1,3.3-10.8,3.3-20
				s-1.1-15.9-3.4-20c-2.2-4.2-5.9-6.3-10.9-6.3s-8.6,2.1-10.8,6.2c-2.2,4.2-3.3,10.8-3.3,20s1.1,15.8,3.3,20
				c2.2,4.1,5.8,6.2,10.8,6.2C611.6,150.7,615.3,148.7,617.6,144.5z"/>
			<path class="st0" d="M668.4,156.7V92.1h39.3v7.2h-25.5v23.9h22.3v7h-22.3v26.6L668.4,156.7L668.4,156.7z"/>
			<path class="st0" d="M717,156.7V92.1h38.7v7.2h-25v21.3h22.1v7h-22.1v22h26.5v7.2L717,156.7L717,156.7z"/>
			<path class="st0" d="M769.1,156.7l0.8-64.6h16.6l18.1,47.6h0.4l17.7-47.6h15.4l0.7,64.6h-13.4l-0.7-48.9h-0.3l-18,48.9h-10.2
				l-18-48.9h-0.3l-0.3,48.9C777.6,156.7,769.1,156.7,769.1,156.7z"/>
			<path class="st0" d="M854.2,156.7V92.1h13.7v64.6H854.2z"/>
			<path class="st0" d="M883.3,156.7V92.1h14.2l27.2,43.8h0.2l-0.7-4.5V92.1h8.5v64.6H922l-30.7-48.5h-0.2l0.8,5.8v42.7H883.3z"/>
			<path class="st0" d="M948,156.7V92.1h13.7v64.6H948z"/>
			<path class="st0" d="M977.2,156.7V92.1h14.2l27.1,43.8h0.2l-0.7-4.5V92.1h8.6v64.6h-10.7l-30.7-48.5H985l0.8,5.8v42.7H977.2z"/>
			<path class="st0" d="M1045.4,148.9c-5.1-5.9-7.6-14.1-7.6-24.4c0-10.3,2.5-18.5,7.6-24.5s12.3-8.9,21.6-9c9.3,0,16.6,3,21.8,9
				c5.1,6,7.7,14.1,7.7,24.4s-2.6,18.4-7.7,24.4s-12.4,9-21.8,9C1057.6,157.8,1050.4,154.9,1045.4,148.9z M1078,144.5
				c2.2-4.1,3.3-10.8,3.3-20s-1.1-15.9-3.4-20c-2.3-4.2-5.9-6.3-10.9-6.3s-8.6,2.1-10.8,6.2c-2.2,4.2-3.3,10.8-3.3,20
				s1.1,15.8,3.3,20c2.2,4.1,5.8,6.2,10.8,6.2C1072.1,150.7,1075.7,148.7,1078,144.5L1078,144.5z"/>
			<path class="st1" d="M175.1,64.6c-5.2,0-10.5,0.7-15.5,2c-7.5,2-14.5,5.4-20.7,10l-0.9,0.7c2,1.6,4,3.3,5.8,5.1
				c1.8,1.8,3.8,3.4,5.9,4.9c0.4,0.3,0.9,0.6,1.3,0.9c14.7-9.5,33.6-9.5,48.3,0c2.6-1.7,5-3.6,7.2-5.8l0,0c1.8-1.8,3.4-3.7,4.9-5.8
				C200.9,68.8,188.2,64.6,175.1,64.6z"/>
			<path class="st1" d="M138.9,99.9l-0.9,1.3c9.5,14.7,9.5,33.6,0,48.3c1.7,2.6,3.6,5,5.8,7.1l0,0c1.8,1.8,3.8,3.5,5.9,4.9
				c11-14.8,14.6-33.9,9.9-51.7C152.1,107.9,145.1,104.5,138.9,99.9z"/>
			<path class="st1" d="M132.2,94c-1.8-1.8-3.8-3.4-5.8-4.9l-1.3-0.9c-7.2,4.7-15.6,7.1-24.1,7.1c-8.6,0-16.9-2.5-24.1-7.1
				c-4.7,3.1-8.8,7-12.1,11.6c10.4,7.8,23.1,12,36.1,12c5.2,0,10.5-0.7,15.5-2c7.5-2,14.5-5.3,20.7-9.9l0.9-0.7
				C136,97.6,134,95.9,132.2,94z"/>
			<path class="st2" d="M206.5,94c-2.2-2.2-4.6-4.1-7.2-5.8c-7.2,4.7-15.6,7.2-24.1,7.1c-8.6,0-17-2.5-24.1-7.1
				c-0.5-0.3-0.9-0.6-1.3-0.9c-2.1-1.5-4-3.1-5.8-4.9c-1.8-1.8-3.8-3.5-5.8-5.1c-0.3-0.2-0.6-0.5-0.9-0.7c-21.7-16-51.1-15.9-72.6,0
				c1.5,2.1,3.1,4,4.9,5.8c2.2,2.2,4.6,4.1,7.2,5.8c14.7-9.5,33.6-9.5,48.2,0l1.3,0.9c2.1,1.5,4,3.1,5.8,4.9
				c1.8,1.8,3.8,3.5,5.8,5.1l0,0l-0.9,0.7c-6.2,4.6-13.2,8-20.7,9.9c-1.3,5.1-2,10.3-2,15.5c0,13,4.2,25.8,12,36.2
				c4.6-3.3,8.5-7.4,11.6-12.1c-9.5-14.7-9.5-33.6,0-48.2l0.9-1.3l0,0c6.2,4.6,13.2,8,20.7,10c5.1,1.3,10.3,2,15.6,2
				c13.1,0,25.8-4.2,36.2-12C209.9,97.8,208.3,95.8,206.5,94z"/>
		</g>
	</g>
	<rect class="st3" width="1161.2" height="226.1"/>
</g>
</svg>
